<?xml version="1.0" encoding="utf-8"?>
<!-- Generator: Adobe Illustrator 19.0.0, SVG Export Plug-In . SVG Version: 6.00 Build 0)  -->
<svg version="1.1" id="Layer_1" xmlns="http://www.w3.org/2000/svg" xmlns:xlink="http://www.w3.org/1999/xlink" x="0px" y="0px"
	 viewBox="0 0 135.9 135.9" style="enable-background:new 0 0 135.9 135.9;" xml:space="preserve">
<style type="text/css">
	.st0{fill:#F2A222;}
	.st1{fill:#C66F18;}
	.st2{fill:#FCD222;}
	.st3{fill:#DD9D2C;}
	.st4{fill:none;stroke:#FC3C2D;stroke-width:15.411;stroke-miterlimit:10;}
</style>
<path id="XMLID_283_" class="st0" d="M117.9,102.9c0-3.3,2.7-6,6-6v-48H8.9V74c0.5-0.1,1-0.1,1.5-0.1c7.5,0,13.5,6,13.5,13.5
	c0,7.5-6,13.5-13.5,13.5c-0.5,0-1,0-1.5-0.1v20.1h115v-12C120.6,108.9,117.9,106.3,117.9,102.9z"/>
<circle id="XMLID_275_" class="st1" cx="98.9" cy="75.9" r="9"/>
<circle id="XMLID_276_" class="st1" cx="74.4" cy="100.4" r="10.5"/>
<ellipse id="XMLID_278_" class="st2" cx="52.4" cy="35.4" rx="10.5" ry="4.5"/>
<circle id="XMLID_279_" class="st1" cx="51.4" cy="68.4" r="6.5"/>
<path id="XMLID_282_" class="st2" d="M76.1,26.7c-1.7,0.8-4,1.3-6.6,1.3c-5.2,0-9.5-2-9.5-4.5c0-1.2,1-2.3,2.6-3.1L37.9,8.9l-29,40
	h115L76.1,26.7z"/>
<ellipse id="XMLID_277_" class="st3" cx="47.4" cy="36.4" rx="9.5" ry="3.5"/>
<ellipse id="XMLID_280_" class="st3" cx="88.9" cy="41.9" rx="6" ry="2"/>
<line id="XMLID_262_" class="st4" x1="5.4" y1="5.4" x2="130.4" y2="130.4"/>
<line id="XMLID_263_" class="st4" x1="130.4" y1="5.4" x2="5.4" y2="130.4"/>
</svg>
