<?xml version="1.0" encoding="utf-8"?>
<!-- Generator: Adobe Illustrator 19.0.0, SVG Export Plug-In . SVG Version: 6.00 Build 0)  -->
<svg version="1.1" id="Layer_1" xmlns="http://www.w3.org/2000/svg" xmlns:xlink="http://www.w3.org/1999/xlink" x="0px" y="0px"
	 viewBox="0 0 272.4 118.5" style="enable-background:new 0 0 272.4 118.5;" xml:space="preserve">
<style type="text/css">
	.st0{fill:#517084;}
	.st1{fill:#6A9AB7;}
	.st2{fill:none;stroke:#FF0000;stroke-miterlimit:10;}
	.st3{fill:#D68E8E;}
	.st4{fill:#EF9C9C;}
	.st5{fill:#FFFFFF;}
	.st6{fill:#020202;}
</style>
<path id="XMLID_237_" class="st0" d="M141.1,61.8c0,0-11.1,22.5,10.2,30.9c0,0-5.5,4.6-3.6,9.5c0,0-5.2,2.2-6,6.6l10.8-4.2
	c0,0-5.8-3.7,4.1-12.5c0,0-16.4-14.2-2.3-35.3"/>
<path id="XMLID_417_" class="st0" d="M77.9,46.8c0,0-18.7,9.3-15.4,32.1c0,0-11.2,5.3-16.3,19.3c0,0-4.4,1.7-7.8,7.7l9.2-3.6
	c0,0,5.4-17.3,21.5-21.2c0,0,3.8-20.1,22.2-28.7"/>
<path id="XMLID_398_" class="st1" d="M85,57.4c0,0-18.7,9.3-15.4,32.1c0,0-11.2,5.3-16.3,19.3c0,0-3.5,3.8-6.9,9.8l8.3-5.7
	c0,0,5.4-17.3,21.5-21.2c0,0,3.8-20.1,22.2-28.7"/>
<path id="XMLID_241_" class="st1" d="M61.5,83.1c0,0,31-4.8,53.2,3s30-59.3,30-59.3s-42-13.8-94.8,6.3L61.5,83.1z"/>
<path id="XMLID_295_" class="st2" d="M80.3,34.1"/>
<path id="XMLID_423_" class="st3" d="M52.4,30.1c0,0-0.6-26.2,26.2-28.5c0,0,21.4-1.4-3.4,33.6c0,0-3.7,3.6-9.1,2.9L52.4,30.1z"/>
<path id="XMLID_422_" class="st4" d="M164.1,40.8c0,0,29,13.3,59.9-2.7c0,0,28.1-12,48.5-0.6c0,0-29-4.7-50.1,7.4
	c0,0-29.3,16.3-47.8,5.4L164.1,40.8z"/>
<path id="XMLID_239_" class="st1" d="M71,62.6c43.8,32.2,82.1,32.6,82.1,32.6s42.5-0.1,27.5-45.2c0,0-9.1-18.9-37.2-23.6
	c0,0-15.7-3.2-38.3-0.6"/>
<path id="XMLID_238_" class="st1" d="M68.3,28.6c-17.2,3.8-23.5,6.3-23.5,6.3s-20.5,2.6-31.6,16.2c-9.1,11.2-0.7,15.9-0.7,15.9
	s28.3,34,78.1,5.9"/>
<path id="XMLID_410_" class="st4" d="M48.4,33.3c0,0-5.6-25.6,20.3-33c0,0,20.7-5.4,3.1,33.7c0,0-2.9,4.3-8.4,4.6L48.4,33.3z"/>
<circle id="XMLID_405_" class="st4" cx="7.8" cy="58.3" r="7.8"/>
<circle id="XMLID_404_" class="st5" cx="45.6" cy="46.5" r="7.6"/>
<circle id="XMLID_399_" class="st6" cx="45.6" cy="46.5" r="5.8"/>
<path id="XMLID_392_" class="st1" d="M135.7,70.9c0,0-17.4,18.1,0.4,32.6c0,0-6.6,2.7-6.3,7.9c0,0-5.7,0.6-7.7,4.5l11.6-0.7
	c0,0-4.5-5.3,7.7-10.7c0,0-11.3-18.5,8.4-34.3"/>
<path id="XMLID_232_" class="st2" d="M80.3,34.1"/>
</svg>
