<?xml version="1.0" encoding="utf-8"?>
<!-- Generator: Adobe Illustrator 19.0.0, SVG Export Plug-In . SVG Version: 6.00 Build 0)  -->
<svg version="1.1" id="Layer_1" xmlns="http://www.w3.org/2000/svg" xmlns:xlink="http://www.w3.org/1999/xlink" x="0px" y="0px"
	 viewBox="0 0 272.4 118.5" style="enable-background:new 0 0 272.4 118.5;" xml:space="preserve">
<style type="text/css">
	.st0{fill:#D68E8E;}
	.st1{fill:#EF9C9C;}
	.st2{fill:#517084;}
	.st3{fill:#6A9AB7;}
	.st4{fill:#FFFFFF;}
	.st5{fill:#020202;}
</style>
<path id="XMLID_171_" class="st0" d="M55.2,25.1c0,0,5.6-25.6,32.2-21.4c0,0,21.1,3.8-11.4,31.8c0,0-4.4,2.6-9.5,0.6L55.2,25.1z"/>
<path id="XMLID_180_" class="st1" d="M158.7,36.4c0,0,24.9-20.6,58.2-5.7c0,0,26.7,13.6,53.9,0.7c0,0-19.9,14.3-55.5,6.1
	c0,0-33.3-12-47.8,5.4L158.7,36.4z"/>
<path id="XMLID_178_" class="st2" d="M67.5,45.6c0,0-20.7,2.5-25.3,25c0,0-12.4,1.2-21.8,12.7c0,0-1.5-4.6-8.2-4.5l8.1,8.8
	c0,0,10.9-14.4,27.4-12.8c0,0,10.3-17.6,30.5-19.6"/>
<path id="XMLID_185_" class="st2" d="M123.5,62.3c0,0,14.5,14.9,35.2,4.9c0,0,8.5,9.1,23.3,9.7c0,0-2.7,4,1.4,9.2l2-11.8
	c0,0-18,0.1-26.7-14c0,0-20.2,2.5-34-12.4"/>
<path id="XMLID_186_" class="st3" d="M5.8,29.9c0,0-0.4,44.3,55.8,55s92.4-7.2,92.4-7.2s37.9-19.3,4.2-52.7c0,0-17.1-14.2-42-0.9
	c0,0-20,9.8-38.3,3.1s-26.6-0.9-26.6-0.9s-17.3-11.3-34.5-8C2.5,20.9,5.8,29.9,5.8,29.9z"/>
<path id="XMLID_187_" class="st1" d="M50.6,27.2c0,0,0.7-26.2,27.6-27.2c0,0,21.4-0.3-5.1,33.4c0,0-3.8,3.4-9.2,2.4L50.6,27.2z"/>
<circle id="XMLID_192_" class="st1" cx="7.8" cy="20.3" r="7.8"/>
<circle id="XMLID_193_" class="st4" cx="40" cy="36" r="7.6"/>
<circle id="XMLID_194_" class="st5" cx="40" cy="36" r="5.8"/>
<path id="XMLID_199_" class="st3" d="M65.1,64.4c0,0-20.7,2.5-25.3,25c0,0-12.4,1.2-21.8,12.7c0,0-1.5-4.6-8.2-4.5l8.1,8.8
	c0,0,10.9-14.4,27.4-12.8c0,0,10.3-17.6,30.5-19.6"/>
<path id="XMLID_200_" class="st3" d="M124.7,85.8c0,0,14.5,14.9,35.2,4.9c0,0,8.5,9.1,23.3,9.7c0,0-2.7,4,1.4,9.2l2-11.8
	c0,0-18,0.1-26.7-14c0,0-20.2,2.5-34-12.4"/>
</svg>
