<?xml version="1.0" encoding="utf-8"?>
<!-- Generator: Adobe Illustrator 19.0.0, SVG Export Plug-In . SVG Version: 6.00 Build 0)  -->
<svg version="1.1" id="Layer_1" xmlns="http://www.w3.org/2000/svg" xmlns:xlink="http://www.w3.org/1999/xlink" x="0px" y="0px"
	 viewBox="0 0 66.4 77.4" style="enable-background:new 0 0 66.4 77.4;" xml:space="preserve">
<style type="text/css">
	.st0{fill:#668408;}
	.st1{fill:#90C900;}
	.st2{fill:#D3EF7B;}
	.st3{fill:#FFFFFF;}
	.st4{fill:#FFF323;}
	.st5{fill:#FFE043;}
	.st6{fill:none;stroke:#6F8E0E;stroke-miterlimit:10;}
</style>
<path id="XMLID_265_" class="st0" d="M49.2,51c-0.9,7.1,1.4,13.3,5.3,13.8s10.9-4,11.8-11.2c0.9-7.1-4.6-14.1-8.5-14.6
	S50.1,43.9,49.2,51z"/>
<path id="XMLID_264_" class="st0" d="M17.2,51c0.9,7.1-1.4,13.3-5.3,13.8S1,60.7,0.1,53.6S4.7,39.5,8.6,39S16.2,43.9,17.2,51z"/>
<path id="XMLID_263_" class="st1" d="M60.9,48.9c0,19.4-12.4,27.3-27.7,27.3S5.6,68.4,5.6,48.9S18,13.7,33.2,13.7
	S60.9,29.5,60.9,48.9z"/>
<ellipse id="XMLID_262_" class="st1" cx="33.2" cy="25.8" rx="31" ry="24.4"/>
<circle id="XMLID_261_" class="st2" cx="21.2" cy="26.3" r="15.6"/>
<circle id="XMLID_260_" class="st2" cx="45.3" cy="26.3" r="15.6"/>
<circle id="XMLID_259_" class="st3" cx="44" cy="26.1" r="9.8"/>
<circle id="XMLID_258_" class="st3" cx="22.4" cy="26.1" r="9.8"/>
<circle id="XMLID_257_" cx="22.4" cy="26.1" r="7.4"/>
<circle id="XMLID_256_" cx="44" cy="26.1" r="7.4"/>
<path id="XMLID_255_" class="st2" d="M50.4,59.9c0,11.6-7.8,16.3-17.4,16.3s-17.4-4.7-17.4-16.3s7.8-21,17.4-21S50.4,48.3,50.4,59.9
	z"/>
<polygon id="XMLID_254_" class="st4" points="27.3,35.4 32.9,48.5 38.5,35.4 "/>
<ellipse id="XMLID_253_" class="st5" cx="20.8" cy="74.4" rx="1.9" ry="3"/>
<ellipse id="XMLID_252_" class="st5" cx="23.8" cy="74.4" rx="1.9" ry="3"/>
<ellipse id="XMLID_251_" class="st5" cx="26.8" cy="74.4" rx="1.9" ry="3"/>
<ellipse id="XMLID_250_" class="st5" cx="38.8" cy="74.4" rx="1.9" ry="3"/>
<ellipse id="XMLID_249_" class="st5" cx="41.8" cy="74.4" rx="1.9" ry="3"/>
<ellipse id="XMLID_248_" class="st5" cx="44.8" cy="74.4" rx="1.9" ry="3"/>
<path id="XMLID_247_" class="st6" d="M7,47.7c-0.5,3.9,3.6,5.3,5.5,1.7"/>
<path id="XMLID_246_" class="st6" d="M9,51.7c-0.5,3.9,3.6,5.3,5.5,1.7"/>
<path id="XMLID_245_" class="st6" d="M53.3,54.9c1.2,3.8,5.5,3.3,5.7-0.8"/>
<path id="XMLID_244_" class="st6" d="M49.3,47.8c1.1,3.8,5.5,3.4,5.7-0.7"/>
<path id="XMLID_243_" class="st1" d="M10.4,10.4c0,0,1-3.3-1.7-4.6c-3.1-1.5,1.8-1.1,4,0.7c1.3,1.1,1.6-1-0.7-2.9S16.6,3.7,17,6"/>
<path id="XMLID_242_" class="st1" d="M55.4,10.4c0,0-1-3.3,1.7-4.6c3.1-1.5-1.8-1.1-4,0.7c-1.3,1.1-1.6-1,0.7-2.9S49.2,3.7,48.7,6"
	/>
<path id="XMLID_241_" class="st1" d="M23.5,3.4c-1.5-4.3-4.6-3.4-4.6-3.4s2.8,2.1,1.5,4.5"/>
</svg>
