<?xml version="1.0" encoding="utf-8"?>
<!-- Generator: Adobe Illustrator 19.0.0, SVG Export Plug-In . SVG Version: 6.00 Build 0)  -->
<svg version="1.1" id="Layer_1" xmlns="http://www.w3.org/2000/svg" xmlns:xlink="http://www.w3.org/1999/xlink" x="0px" y="0px"
	 viewBox="0 0 66.4 75.9" style="enable-background:new 0 0 66.4 75.9;" xml:space="preserve">
<style type="text/css">
	.st0{fill:#A254B5;}
	.st1{fill:#D05DE8;}
	.st2{fill:#E3AFEF;}
	.st3{fill:#FFF323;}
	.st4{fill:#FFE043;}
	.st5{fill:none;stroke:#A131BC;stroke-miterlimit:10;}
	.st6{fill:#D05DE8;stroke:#D05DE8;stroke-miterlimit:10;}
	.st7{fill:none;stroke:#000000;stroke-miterlimit:10;}
	.st8{fill:#FFFFFF;}
</style>
<path id="XMLID_464_" class="st0" d="M49.2,49.5c-0.9,7.1,1.4,13.3,5.3,13.8c3.8,0.5,10.9-4,11.8-11.2c0.9-7.1-4.6-14.1-8.5-14.6
	C54,37,50.1,42.4,49.2,49.5z"/>
<path id="XMLID_463_" class="st0" d="M17.2,49.5c0.9,7.1-1.4,13.3-5.3,13.8C8.1,63.8,1,59.3,0.1,52.1S4.7,38,8.6,37.5
	C12.4,37,16.2,42.4,17.2,49.5z"/>
<path id="XMLID_462_" class="st1" d="M60.9,47.4c0,19.4-12.4,27.3-27.7,27.3S5.6,66.9,5.6,47.4S18,12.2,33.2,12.2S60.9,28,60.9,47.4
	z"/>
<ellipse id="XMLID_461_" class="st1" cx="33.2" cy="24.4" rx="31" ry="24.4"/>
<circle id="XMLID_460_" class="st2" cx="21.2" cy="24.8" r="15.6"/>
<circle id="XMLID_459_" class="st2" cx="45.3" cy="24.8" r="15.6"/>
<path id="XMLID_458_" class="st2" d="M50.4,58.4c0,11.6-7.8,16.3-17.4,16.3s-17.4-4.7-17.4-16.3s7.8-21,17.4-21S50.4,46.8,50.4,58.4
	z"/>
<polygon id="XMLID_457_" class="st3" points="27.3,33.9 32.9,47 38.5,33.9 "/>
<ellipse id="XMLID_456_" class="st4" cx="20.8" cy="73" rx="1.9" ry="3"/>
<ellipse id="XMLID_455_" class="st4" cx="23.8" cy="73" rx="1.9" ry="3"/>
<ellipse id="XMLID_454_" class="st4" cx="26.8" cy="73" rx="1.9" ry="3"/>
<ellipse id="XMLID_453_" class="st4" cx="38.8" cy="73" rx="1.9" ry="3"/>
<ellipse id="XMLID_452_" class="st4" cx="41.8" cy="73" rx="1.9" ry="3"/>
<ellipse id="XMLID_451_" class="st4" cx="44.8" cy="73" rx="1.9" ry="3"/>
<path id="XMLID_450_" class="st5" d="M7,46.2c-0.5,3.9,3.6,5.3,5.5,1.7"/>
<path id="XMLID_449_" class="st5" d="M9,50.2c-0.5,3.9,3.6,5.3,5.5,1.7"/>
<path id="XMLID_448_" class="st5" d="M53.3,53.4c1.2,3.8,5.5,3.3,5.7-0.8"/>
<path id="XMLID_447_" class="st5" d="M49.3,46.4c1.1,3.8,5.5,3.4,5.7-0.7"/>
<path id="XMLID_446_" class="st6" d="M10.4,8.9c0,0,1-3.3-1.7-4.6c-3.1-1.5,1.8-1.1,4,0.7C13.9,6,14.2,4,12,2.1s4.6,0.1,5.1,2.4"/>
<path id="XMLID_445_" class="st7" d="M29.2,28.3"/>
<path id="XMLID_444_" class="st7" d="M15.5,25.8c3.9,3.8,8.9,3.9,12.4,0"/>
<path id="XMLID_443_" class="st7" d="M37.5,25.8c3.9,3.8,8.9,3.9,12.4,0"/>
<circle id="XMLID_695_" class="st8" cx="44" cy="24.6" r="9.8"/>
<circle id="XMLID_694_" class="st8" cx="22.4" cy="24.6" r="9.8"/>
<circle id="XMLID_693_" cx="22.4" cy="24.6" r="7.4"/>
<circle id="XMLID_689_" cx="44" cy="24.6" r="7.4"/>
</svg>
