<?xml version="1.0" encoding="utf-8"?>
<!-- Generator: Adobe Illustrator 19.0.0, SVG Export Plug-In . SVG Version: 6.00 Build 0)  -->
<svg version="1.1" id="Layer_1" xmlns="http://www.w3.org/2000/svg" xmlns:xlink="http://www.w3.org/1999/xlink" x="0px" y="0px"
	 viewBox="0 0 66.4 76.3" style="enable-background:new 0 0 66.4 76.3;" xml:space="preserve">
<style type="text/css">
	.st0{fill:#6D7754;}
	.st1{fill:#93AA65;}
	.st2{fill:#DFE8C8;}
	.st3{fill:#FFFFFF;}
	.st4{fill:#FFF323;}
	.st5{fill:#FFE043;}
	.st6{fill:none;stroke:#6D7754;stroke-miterlimit:10;}
</style>
<path id="XMLID_492_" class="st0" d="M49.2,49.9c-0.9,7.1,1.4,13.3,5.3,13.8s10.9-4,11.8-11.2c0.9-7.1-4.6-14.1-8.5-14.6
	C54,37.4,50.1,42.8,49.2,49.9z"/>
<path id="XMLID_491_" class="st0" d="M17.2,49.9c0.9,7.1-1.4,13.3-5.3,13.8S1,59.7,0.1,52.5s4.6-14.1,8.5-14.6
	C12.4,37.4,16.2,42.8,17.2,49.9z"/>
<path id="XMLID_490_" class="st1" d="M60.9,47.9c0,19.4-12.4,27.3-27.7,27.3S5.6,67.3,5.6,47.9S18,12.7,33.2,12.7
	S60.9,28.4,60.9,47.9z"/>
<ellipse id="XMLID_489_" class="st1" cx="33.2" cy="24.8" rx="31" ry="24.4"/>
<circle id="XMLID_488_" class="st2" cx="21.2" cy="25.2" r="15.6"/>
<circle id="XMLID_487_" class="st2" cx="45.3" cy="25.2" r="15.6"/>
<circle id="XMLID_486_" class="st3" cx="44" cy="25" r="9.8"/>
<circle id="XMLID_485_" class="st3" cx="22.4" cy="25" r="9.8"/>
<circle id="XMLID_484_" cx="22.4" cy="25" r="7.4"/>
<circle id="XMLID_483_" cx="44" cy="25" r="7.4"/>
<path id="XMLID_482_" class="st2" d="M50.4,58.8c0,11.6-7.8,16.3-17.4,16.3s-17.4-4.7-17.4-16.3s7.8-21,17.4-21S50.4,47.2,50.4,58.8
	z"/>
<polygon id="XMLID_481_" class="st4" points="27.3,34.3 32.9,47.4 38.5,34.3 "/>
<ellipse id="XMLID_480_" class="st5" cx="20.8" cy="73.4" rx="1.9" ry="3"/>
<ellipse id="XMLID_479_" class="st5" cx="23.8" cy="73.4" rx="1.9" ry="3"/>
<ellipse id="XMLID_478_" class="st5" cx="26.8" cy="73.4" rx="1.9" ry="3"/>
<ellipse id="XMLID_477_" class="st5" cx="38.8" cy="73.4" rx="1.9" ry="3"/>
<ellipse id="XMLID_476_" class="st5" cx="41.8" cy="73.4" rx="1.9" ry="3"/>
<ellipse id="XMLID_475_" class="st5" cx="44.8" cy="73.4" rx="1.9" ry="3"/>
<path id="XMLID_473_" class="st6" d="M9,50.6c-0.5,3.9,3.6,5.3,5.5,1.7"/>
<path id="XMLID_472_" class="st6" d="M52.3,48.8c1.2,3.8,5.5,3.3,5.7-0.8"/>
<path id="XMLID_470_" class="st1" d="M10.4,9.3c0,0,1-3.3-1.7-4.6c-3.1-1.5,1.8-1.1,4,0.7c1.3,1.1,1.6-1-0.7-2.9s4.6,0.1,5.1,2.4"/>
<path id="XMLID_469_" class="st1" d="M52.7,7.3c0,0-1.5-3.2,1-4.8c2.9-1.9-1.9-0.9-3.8,1.2c-1.1,1.2-1.7-0.8,0.3-3
	c2-2.2-4.5,0.8-4.7,3.1"/>
<path id="XMLID_471_" class="st1" d="M56.1,9.7c0,0-0.1-2.7,2.2-3.2C61,6,57.2,5.4,55.2,6.3c-1.2,0.6-1-1.1,1.1-2.1
	c2.1-1-3.5-0.8-4.3,0.9"/>
</svg>
