<?xml version="1.0" encoding="utf-8"?>
<!-- Generator: Adobe Illustrator 19.0.0, SVG Export Plug-In . SVG Version: 6.00 Build 0)  -->
<svg version="1.1" id="Layer_1" xmlns="http://www.w3.org/2000/svg" xmlns:xlink="http://www.w3.org/1999/xlink" x="0px" y="0px"
	 viewBox="-322 223.1 314.4 115.9" style="enable-background:new -322 223.1 314.4 115.9;" xml:space="preserve">
<style type="text/css">
	.st0{display:none;}
	.st1{display:inline;}
</style>
<g id="Layer_1_1_" class="st0">
	<polyline id="XMLID_644_" class="st1" points="-8.1,290.7 -312.1,238.6 -226.5,276.5 -93,306.7 -118.7,339 -65.3,311.8 -8.1,327 	
		"/>
</g>
<g id="Layer_2">
	<polyline id="XMLID_642_" points="-323.5,326.6 -176.1,300.1 -82.6,279.7 -53.5,287.5 -66,264.8 -32.8,225.9 -72.5,247 -323,290.7 
			"/>
</g>
<g id="Layer_3" class="st0">
	<polyline id="XMLID_465_" class="st1" points="-8.1,290.7 -196.5,260.1 -246.5,223.1 -235.5,253.1 -293.5,251.1 -248.5,272.1 
		-246.5,304.1 -222.5,278.1 -167.5,290.1 -7.6,326.6 	"/>
</g>
<g id="Layer_4" class="st0">
	<polyline id="XMLID_643_" class="st1" points="-9,290.2 -322,237 -271.3,255.9 -272.9,279.7 -243.3,268.2 -7.6,326.6 	"/>
</g>
</svg>
