<?xml version="1.0" encoding="utf-8"?>
<!-- Generator: Adobe Illustrator 19.0.0, SVG Export Plug-In . SVG Version: 6.00 Build 0)  -->
<svg version="1.1" xmlns="http://www.w3.org/2000/svg" xmlns:xlink="http://www.w3.org/1999/xlink" x="0px" y="0px"
	 viewBox="0 0 314.4 115.9" style="enable-background:new 0 0 314.4 115.9;" xml:space="preserve">
<style type="text/css">
	.st0{display:none;}
	.st1{display:inline;}
</style>
<g id="Layer_1" class="st0">
	<polyline id="XMLID_644_" class="st1" points="313.9,67.6 9.9,15.5 95.5,53.4 229,83.6 203.3,115.9 256.7,88.7 313.9,103.9 	"/>
</g>
<g id="Layer_2" class="st0">
	<polyline id="XMLID_642_" class="st1" points="313.9,67.6 63.4,23.9 23.7,2.8 56.9,41.7 44.4,64.4 73.5,56.6 167,77 314.4,103.5 	
		"/>
</g>
<g id="Layer_3" class="st0">
	<polyline id="XMLID_465_" class="st1" points="313.9,67.6 125.5,37 75.5,0 86.5,30 28.5,28 73.5,49 75.5,81 99.5,55 154.5,67 
		314.4,103.5 	"/>
</g>
<g id="Layer_4">
	<polyline id="XMLID_643_" points="313,67.1 0,13.9 50.7,32.8 49.1,56.6 78.7,45.1 314.4,103.5 	"/>
</g>
</svg>
