<?xml version="1.0" encoding="utf-8"?>
<!-- Generator: Adobe Illustrator 19.0.0, SVG Export Plug-In . SVG Version: 6.00 Build 0)  -->
<svg version="1.1" id="Layer_1" xmlns="http://www.w3.org/2000/svg" xmlns:xlink="http://www.w3.org/1999/xlink" x="0px" y="0px"
	 viewBox="-322 223.1 314.4 115.9" style="enable-background:new -322 223.1 314.4 115.9;" xml:space="preserve">
<style type="text/css">
	.st0{display:none;}
	.st1{display:inline;}
</style>
<g id="Layer_1_1_">
	<polyline id="XMLID_644_" points="-322,327 -264.8,311.8 -211.4,339 -237.1,306.7 -103.6,276.5 -18,238.6 -322,290.7 	"/>
</g>
<g id="Layer_2" class="st0">
	<polyline id="XMLID_642_" class="st1" points="-8.1,290.7 -258.6,247 -298.3,225.9 -265.1,264.8 -277.6,287.5 -248.5,279.7 
		-155,300.1 -7.6,326.6 	"/>
</g>
<g id="Layer_3" class="st0">
	<polyline id="XMLID_465_" class="st1" points="-8.1,290.7 -196.5,260.1 -246.5,223.1 -235.5,253.1 -293.5,251.1 -248.5,272.1 
		-246.5,304.1 -222.5,278.1 -167.5,290.1 -7.6,326.6 	"/>
</g>
<g id="Layer_4" class="st0">
	<polyline id="XMLID_643_" class="st1" points="-9,290.2 -322,237 -271.3,255.9 -272.9,279.7 -243.3,268.2 -7.6,326.6 	"/>
</g>
</svg>
